<?xml version="1.0" encoding="utf-8"?>
<!-- Generator: Adobe Illustrator 24.0.2, SVG Export Plug-In . SVG Version: 6.00 Build 0)  -->
<svg version="1.1" id="Layer_1" xmlns="http://www.w3.org/2000/svg" xmlns:xlink="http://www.w3.org/1999/xlink" x="0px" y="0px"
	 viewBox="0 0 512 511" style="enable-background:new 0 0 512 511;" xml:space="preserve">
<style type="text/css">
	.st0{fill:#262832;}
</style>
<path class="st0" d="M489.6,345.1h-78.9c4.7-1.6,9.5-3.3,14.1-5.1c30.2-12.1,45.5-26.3,45.5-42.2c0-24.5-19.8-32.7-37.3-39.9
	c-7.5-3.1-15.2-6.3-21.6-10.7c-3.4-2.3-8.1-1.5-10.4,1.9c-2.3,3.4-1.5,8.1,1.9,10.4c7.6,5.3,16.1,8.8,24.3,12.2
	c17.9,7.4,28,12.3,28,26.1c0,8.8-13.1,19.1-36.1,28.2c-27.5,11-59.4,16.9-72.4,19.1h-24.6c16.8-13.1,28.7-31.1,36.4-54.9
	c9.3-29,22.5-50.2,42.9-68.9c5.7-5.2,8.2-12.5,7.3-19.5l42.8-31.8c1.2-0.9,2.8-0.9,4-0.1c9.3,6.2,18.8,7.9,27.6,4.9
	c6.9-2.4,12.3-7.3,15.3-13.9c3-6.9,3-14.9-0.1-22.1c-4.1-9.4-12.7-15.7-22.6-16.9c1.9-9.7-1.6-19.9-9.3-26.6
	c-5.9-5.1-13.5-7.5-21-6.7c-7.2,0.8-13.5,4.5-17.9,10.4c-5.5,7.5-6.7,17.1-3.6,27.8c0.4,1.4-0.1,2.9-1.3,3.8l-43.2,31.3
	c-6.4-2.9-14.1-2.7-20.8,1.1c-24,13.9-48.2,20.1-78.6,20.3c-26.1,0.2-47.6,6.7-65.6,19.9c-20.1,14.8-33.7,36.1-38,60.1
	c-4.4,24.1,1,48,15.1,67.3c3.9,5.4,8.5,10.2,13.5,14.5h-95c-57.7-11.6-85.8-40.4-85.8-88c0-36.2,16.2-73.5,44.4-102.3
	c30.5-31.2,71.2-48.4,114.6-48.4c49.8,0,101.5,18.1,141.9,49.8c3.3,2.6,8,2,10.5-1.3c2.6-3.3,2-8-1.3-10.5
	c-43-33.7-98.1-53-151.1-53c-47.5,0-92,18.8-125.3,52.9C27,176,9.3,217.1,9.3,257.1c0,40.6,17.9,70.1,53.4,88H20.4
	C8.6,345.1-1,354.7-1,366.5s9.6,21.4,21.4,21.4h27.2c0.4,0,0.8,0.3,1,0.6l4.8,11.7c5.6,13.8,18.9,22.7,33.8,22.7h335.8
	c14.9,0,28.1-8.9,33.8-22.7l4.8-11.7c0.2-0.4,0.5-0.6,1-0.6h27.2c11.8,0,21.4-9.6,21.4-21.4C511,354.7,501.4,345.1,489.6,345.1z
	 M431.6,142.7c6.3-4.6,9-12.7,6.8-20.2c-1.2-4.2-2-10.2,1.3-14.6c2.3-3.2,5.3-4.1,7.5-4.4c3.3-0.4,6.8,0.8,9.5,3.1
	c4.9,4.2,5.3,9.9,4.1,13.9c-1.2,3.8-0.5,7.9,1.9,11.1c2.3,3.2,6.1,5.1,10,5.1h0c4.1,0,9.4,2.1,12,8c1.4,3.3,1.5,7,0.1,10
	c-0.9,1.9-2.7,4.5-6.4,5.8c-5.2,1.8-10.7-0.7-14.3-3.2c-6.5-4.3-15-4.2-21.3,0.5l-40.6,30.2l-11.5-15.7L431.6,142.7z M203.6,321.7
	c-11.7-15.9-16.1-35.7-12.4-55.7c3.7-20.2,15.1-38.2,32.1-50.7c15.4-11.3,34-16.9,56.9-17c33.2-0.2,59.7-7.1,86.1-22.3
	c2.9-1.7,6.3-1.4,8.5,0.5c0,0,0.1,0.1,0.1,0.1c0.3,0.3,0.6,0.6,0.8,0.9l17.1,23.4c0.2,0.3,0.5,0.7,0.6,1.1c0,0,0,0,0,0
	c1.2,2.7,0.4,6-2.1,8.3c-22.4,20.6-37,43.8-47.1,75.4c-7,21.8-17.9,37.8-33.3,49.1c-5.8,4.2-12,7.7-18.6,10.3h-58.9
	C221.5,340.1,211.2,332.1,203.6,321.7z M489.6,372.9H158.9c-4.1,0-7.5,3.4-7.5,7.5c0,4.1,3.4,7.5,7.5,7.5h286.6l-2.7,6.6
	c-3.3,8.1-11.1,13.4-19.9,13.4H87.1c-8.8,0-16.6-5.2-19.9-13.4l-2.7-6.6h59.6c4.1,0,7.5-3.4,7.5-7.5c0-4.1-3.4-7.5-7.5-7.5H20.4
	c-3.5,0-6.4-2.9-6.4-6.4c0-3.5,2.9-6.4,6.4-6.4h469.2c3.5,0,6.4,2.9,6.4,6.4C496,370,493.1,372.9,489.6,372.9z"/>
</svg>
