<?xml version="1.0" encoding="utf-8"?>
<!-- Generator: Adobe Illustrator 24.0.2, SVG Export Plug-In . SVG Version: 6.00 Build 0)  -->
<svg version="1.1" id="Layer_1" xmlns="http://www.w3.org/2000/svg" xmlns:xlink="http://www.w3.org/1999/xlink" x="0px" y="0px"
	 viewBox="0 0 512 512" style="enable-background:new 0 0 512 512;" xml:space="preserve">
<style type="text/css">
	.st0{fill:#262832;}
</style>
<g id="Layer_14">
	<path class="st0" d="M77.7,398c17.6,6.7,42.4,12.9,74.2,12.9c17.4-0.1,34.8-1.8,51.9-5.1c13.4,25.8,38,48.4,63.6,58.3
		c17.6,6.8,42.5,13,74.5,13c23.3-0.1,46.6-3.2,69.1-9c31.7-7.9,58.3-29.3,72.7-58.6c14-28.3,14.8-61.3,2.2-90.2
		c-0.4-1-0.9-2-1.3-2.9c-4.6-9.8-10.2-19.1-16.6-27.7c16.7-14.5,28.8-33.5,34.8-54.8c6.9-23.8,5.2-49.4-4.7-72.1
		c-0.4-1-0.9-2-1.3-2.9c-13.5-28.9-35.7-53.6-64.3-71.5c-11.9-7.4-16.8-17.8-21.1-27c-1-2.2-2.1-4.4-3.2-6.5
		c-0.1-0.2-0.2-0.3-0.2-0.4c-3.9-7.1-8.9-12.8-18.4-12.8c-3.5,0-7.1,0.4-10.5,1.2c-4.4-4.3-10.2-6.7-16.3-6.8
		c-13.7,0-28.3,18-38.2,33.1c-11,16.8-30.1,27.4-49.2,36.4c-23.4,11.1-46.3,34.5-59.3,60.1c-2.6-4.1-4.9-8.4-6.8-12.8
		c-1-2.2-2.1-4.4-3.2-6.5c-0.1-0.2-0.2-0.3-0.2-0.4c-3.9-7-8.9-12.8-18.4-12.8c-4.5-0.1-9,0.6-13.3,2c-4.3-6.5-10.1-7.7-13.5-7.7
		c-7.5,0-20.3,5.7-38.2,33.1c-11,16.8-30,27.4-48.9,36.3c-27.4,13-48.8,35.1-60,62.3c-11.6,27.9-11.2,55.5,1.1,82
		C26.8,366.5,49.3,387.1,77.7,398L77.7,398z M473.8,321.5c0.4,0.9,0.8,1.8,1.2,2.7c11.2,25.7,10.5,55-2,80.1
		c-12.9,26.1-36.6,45.3-64.8,52.3c-63.6,15.9-109.3,6.8-136.4-3.6c-21.8-8.4-43.4-27.8-55.7-49.7c1.7-0.4,3.3-0.8,5-1.2
		c31.7-7.9,58.3-29.3,72.7-58.6c7-14.2,10.8-29.8,11.1-45.6c31.5-21.6,41.1-45.7,48.2-63.4c3.3-8.2,5.8-14.1,9-18
		c2.6,9,1.9,21.2-2,34.2c-5.6,18.5-17.5,37.9-34.4,56c-6,6.3-10.6,13.7-13.4,21.9c-4.7,13.5-3.4,25.7,3.6,35.2
		c1.9,2.7,5.7,3.3,8.4,1.3c2.7-1.9,3.3-5.7,1.3-8.4c0,0,0-0.1-0.1-0.1c-4.6-6.3-5.3-14.4-1.9-24.2c2.3-6.6,6-12.6,10.9-17.6
		c38.2-40.9,46.7-81.3,38.4-104.3c1.5-0.2,3.1-0.3,4.7-0.3c3.2,0,5.1,1.7,7.6,6.1c1.3,6.5,8.6,50.7-14,83.6
		c-13.8,20-18.8,40.1-15.4,61.3c0.5,2.9,3,5,5.9,5c0.3,0,0.6,0,1-0.1c3.3-0.5,5.5-3.6,5-6.9c-2.9-18.1,1.5-35.3,13.4-52.6
		c14.7-21.3,18.3-46.1,18.3-64.9c1.5,2,3.2,3.8,4.9,5.6c2.6,3.7,25.1,38.2-7.9,70.3c-2.4,2.3-2.4,6.1-0.1,8.5s6.1,2.4,8.5,0.1
		c21.8-21.2,23.1-43.6,20.3-58.6c-0.4-2.1-0.8-4.1-1.4-6c11.8,8.4,22.3,18.4,31.4,29.6c0,0.1,0.1,0.1,0.1,0.2
		c0.1,0.1,0.2,0.2,0.3,0.3C462.7,300.8,468.9,310.8,473.8,321.5L473.8,321.5z M297.9,257.8c9.7-6.9,18.1-15.7,24.6-25.7
		c17.9-27.4,27.7-27.7,28.2-27.7c1.7,0,3.3,0.5,4.7,1.4c-6.2,5.9-9.6,14.6-13.4,24c-6.4,15.9-14.1,35.3-37.8,53.6
		C303.1,274.6,301,266,297.9,257.8z M280.5,115.3c19.6-9.3,41.4-21.4,54.1-40.7c17.9-27.4,27.7-27.7,28.2-27.7
		c1.6,0,3.2,0.4,4.6,1.1c-5.2,4.9-8.1,11.8-11.1,18.8c-6.4,15-14.3,33.7-47.1,50.5c-53.1,27.2-43.2,64.5-42.8,66.1
		c0.9,3.2,4.2,5.1,7.4,4.2c3.2-0.9,5.1-4.2,4.2-7.4c0,0,0-0.1,0-0.1c-0.3-1.2-7.3-29.7,36.7-52.2c36.7-18.8,46-40.6,52.7-56.5
		c2.9-6.7,4.9-11.6,8.2-14.7c4.9,9.2,7,24.1,1.3,39.8c-4.9,13-14.3,23.7-26.6,30.1c-35.5,19.2-41.2,37.3-41.4,46.4
		c-0.1,3.3,2.5,6.1,5.9,6.1s6.1-2.5,6.1-5.9c0.3-10.9,13.4-24.4,35.1-36.2c14.8-7.8,26.3-20.9,32.1-36.6c6-16.5,5.4-34.7-1.2-48.1
		c0.8-0.1,1.7-0.1,2.7-0.1c3.2,0,5.1,1.7,7.6,6.1c2.6,14.8,2.9,29.9,0.7,44.8c-4.9,31.8-21.2,54-48.3,66.1c-3,1.3-4.4,4.9-3.1,7.9
		s4.9,4.4,7.9,3.1c0,0,0,0,0,0c30.7-13.7,49.9-39.8,55.3-75.6c1-6.9,1.6-13.9,1.6-20.8c1.5,2,3.2,3.9,5,5.6
		c2.6,3.7,25.1,38.2-7.9,70.3c-2.4,2.3-2.5,6.1-0.2,8.5s6.1,2.5,8.5,0.2c0,0,0.1-0.1,0.1-0.1c21.8-21.2,23.1-43.6,20.3-58.6
		c-0.4-2.1-0.8-4.1-1.4-6c22.2,16,39.1,36.1,50.3,60c0.4,0.9,0.8,1.8,1.2,2.7c16.8,38.4,5.5,84.9-26.6,112.7
		c-11.6-13.4-25.1-25-40.2-34.4c-11.9-7.4-16.8-17.8-21.1-27c-1-2.2-2.1-4.4-3.2-6.6c-0.1-0.1-0.2-0.3-0.2-0.4
		c-3.9-7.1-8.9-12.8-18.4-12.8c-3.7-0.1-7.5,0.4-11.1,1.5c-4-4.5-9.7-7.1-15.7-7.1c-13.7,0-28.3,18-38.2,33.1
		c-5.2,8.1-11.9,15.2-19.5,21c-13.6-27.3-35.2-50.7-62.5-67.8c-2-1.3-4-2.7-5.8-4.3C235.8,149.8,258.3,125.8,280.5,115.3
		L280.5,115.3z M24.5,262.6c10.1-24.4,29.4-44.3,54.1-56c19.5-9.3,41.2-21.3,53.8-40.6c17.9-27.4,27.7-27.7,28.2-27.7
		c1.5,0.1,2.8,1,3.5,2.3c-4.5,4.8-7.2,11.1-9.9,17.6c-6.4,15-14.3,33.7-47.1,50.5c-53.1,27.2-43.2,64.5-42.8,66.1
		c0.9,3.2,4.2,5.1,7.4,4.2c3.2-0.9,5.1-4.2,4.2-7.4c0,0,0,0,0-0.1c-0.1-0.3-7.8-29.4,36.7-52.1c36.7-18.8,46-40.6,52.7-56.5
		c0.9-2.2,1.8-4.2,2.6-6.1c0.9,25.7-11.9,67.9-35.9,87.4c-37.8,30.8-35.7,51.4-35.3,53.6c0.5,3.3,3.6,5.5,6.9,5
		c3.3-0.5,5.5-3.6,5-6.9c0-0.2-1-16.3,31-42.4c31.3-25.5,44.9-80.7,39-108.4c2.9-0.9,5.9-1.3,8.9-1.2c3.2,0,5.1,1.7,7.6,6.1
		c2.6,14.7,2.9,29.7,0.7,44.5c-4.9,32-21.1,54.3-48.3,66.4c-3,1.3-4.4,4.9-3.1,7.9c1.3,3,4.9,4.4,7.9,3.1c0,0,0,0,0,0
		c30.7-13.7,49.9-39.8,55.3-75.6c1-6.9,1.6-13.9,1.6-20.8c1.5,2,3.2,3.9,5,5.6c2.6,3.7,25.1,38.2-7.9,70.3c-2.4,2.3-2.4,6.1-0.1,8.5
		c2.3,2.4,6.1,2.4,8.5,0.1c21.8-21.2,23.1-43.6,20.3-58.6c-0.4-2.1-0.8-4.1-1.4-6c22.2,16,39.1,36.1,50.3,60
		c0.4,0.9,0.8,1.8,1.2,2.7c11.2,25.7,10.5,55-2,80.1c-12.9,26.1-36.6,45.3-64.8,52.3c-63.5,15.9-109.1,6.8-136.2-3.5
		C56.5,377,36.4,358.6,25.4,335C14.5,311.6,14.2,287.3,24.5,262.6L24.5,262.6z"/>
</g>
</svg>
