<?xml version="1.0" encoding="utf-8"?>
<!-- Generator: Adobe Illustrator 24.0.2, SVG Export Plug-In . SVG Version: 6.00 Build 0)  -->
<svg version="1.1" id="Capa_1" xmlns="http://www.w3.org/2000/svg" xmlns:xlink="http://www.w3.org/1999/xlink" x="0px" y="0px"
	 viewBox="0 0 512 512" style="enable-background:new 0 0 512 512;" xml:space="preserve">
<style type="text/css">
	.st0{fill:#262832;}
</style>
<g>
	<path class="st0" d="M509.7,157.7c-24.6-74.9-84.8-134-160.3-157.1c-6.6-2.2-14.1,2-15.8,8.7l-37.6,140c-1.1,4,1.3,8.1,5.3,9.2
		c4,1.1,8.1-1.3,9.2-5.3L337,54.6c55.7,19.9,100.2,63.6,121.1,118.9l-72.5,26.6c-8.8-15.3-29.2-22.2-45.5-15.3
		c-16.3,6.5-25.5,23.6-22.8,40.4l-28.9,10.6l13.1-48.7c1.1-4-1.3-8.1-5.3-9.2c-4-1.1-8.1,1.3-9.2,5.3l-14.3,53.4
		c-2.9,9.4,7.3,18.7,16.4,15c64.3-23.6,148.6-54.6,213.1-78.2C508.5,171.1,511.8,164.2,509.7,157.7L509.7,157.7z M340.9,40l6.5-24.3
		c69,22.1,123.8,75.9,147.2,144.4l-22.4,8.2C449.7,108.4,401.3,61.2,340.9,40L340.9,40z M345.6,198.9c8.7-3.7,19.6-0.8,25.4,6.6
		l-39.2,14.4C331.6,211,336.9,202.4,345.6,198.9z"/>
	<path class="st0" d="M484.3,210.9c-0.8-3.5-3.1-6.4-6.3-8.1c-3.2-1.7-6.9-2-10.3-0.7l-90.9,33.4l-46,16.9c0,0,0,0-0.1,0l-36.5,13.4
		c-3.9,1.4-5.9,5.8-4.5,9.6c1.4,3.9,5.7,5.9,9.6,4.5l30.2-11.1c3.9,6.5,9.7,11.6,16.8,14.7c4.8,2.1,9.8,3.2,14.9,3.2
		c4.6,0,9.1-0.8,13.5-2.6c16.5-6.4,25.8-23.5,23.2-40.3l34.6-12.7c2.3,12,3.5,24.2,3.5,36.4c0,104.5-85,189.4-189.4,189.4
		s-189.4-85-189.4-189.4S142.1,78,246.6,78c12.3,0,24.5,1.2,36.5,3.5l-54.5,203.3c-1.2,4.5,0.2,9.3,3.6,12.5
		c2.4,2.2,5.4,3.3,8.4,3.3c1.5,0,2.9-0.3,4.3-0.8l21.5-7.9c3.9-1.4,5.9-5.8,4.5-9.6c-1.4-3.9-5.7-5.9-9.6-4.5l-17,6.2l64.4-240
		c1.9-6.7-2.6-14.1-9.4-15.5c-20.4-4.5-41.4-6.4-62.5-5.6c-39,1.5-77.4,12.4-111.2,31.6c-3.6,2-4.9,6.6-2.8,10.2
		c2,3.6,6.6,4.9,10.2,2.8c32.1-18.2,67.2-28.2,104.3-29.6c18.9-0.7,37.8,0.8,56.1,4.7L287,67c-13.2-2.7-26.8-4-40.4-4
		C133.8,63,42.1,154.7,42.1,267.4s91.7,204.5,204.5,204.5S451,380.2,451,267.4c0-14-1.4-28-4.3-41.7l23.5-8.6
		c3,13.5,4.8,27.5,5.4,41.5c2.4,61.3-19.3,119.8-60.9,164.8s-98.3,71.1-159.6,73.4c-126.5,4.9-233.3-94-238.2-220.5
		C14.1,202.9,47,132,104.9,86.6c3.3-2.6,3.8-7.3,1.3-10.6c-2.6-3.3-7.3-3.8-10.6-1.3c-29.9,23.4-54.2,53.8-70.4,88
		C8.4,198.1,0.4,237.5,1.9,276.9c2.5,65.3,30.3,125.7,78.3,170C125.7,489.1,184.3,512,246,512c3.2,0,6.4-0.1,9.7-0.2
		c65.3-2.5,125.7-30.3,170-78.2c44.4-47.9,67.4-110.3,64.9-175.6C490,242.1,487.9,226.2,484.3,210.9L484.3,210.9z M369.3,270
		C369.3,270,369.3,270,369.3,270c-5.5,2.1-11.5,2-16.9-0.4c-3.3-1.4-6.1-3.6-8.2-6.3l39.2-14.4C383.5,258,378.1,266.6,369.3,270
		L369.3,270z"/>
	<path class="st0" d="M210.5,167.2c18.2,0,33.1-14.8,33.1-33.1s-14.8-33.1-33.1-33.1s-33.1,14.8-33.1,33.1S192.3,167.2,210.5,167.2z
		 M210.5,116.1c9.9,0,18,8.1,18,18s-8.1,18-18,18s-18-8.1-18-18S200.5,116.1,210.5,116.1z"/>
	<path class="st0" d="M246.6,440.8c18.2,0,33.1-14.8,33.1-33.1s-14.8-33.1-33.1-33.1s-33.1,14.8-33.1,33.1S228.3,440.8,246.6,440.8
		L246.6,440.8z M246.6,389.7c9.9,0,18,8.1,18,18s-8.1,18-18,18s-18-8.1-18-18S236.6,389.7,246.6,389.7L246.6,389.7z"/>
	<path class="st0" d="M90.2,230.4c0,18.2,14.8,33.1,33.1,33.1s33.1-14.8,33.1-33.1s-14.8-33.1-33.1-33.1S90.2,212.1,90.2,230.4z
		 M123.3,212.3c9.9,0,18,8.1,18,18c0,9.9-8.1,18-18,18s-18-8.1-18-18C105.2,220.4,113.3,212.3,123.3,212.3z"/>
	<path class="st0" d="M143.3,393.7c18.2,0,33.1-14.8,33.1-33.1s-14.8-33.1-33.1-33.1s-33.1,14.8-33.1,33.1S125.1,393.7,143.3,393.7z
		 M143.3,342.6c9.9,0,18,8.1,18,18c0,9.9-8.1,18-18,18s-18-8.1-18-18C125.3,350.7,133.4,342.6,143.3,342.6z"/>
	<path class="st0" d="M366.3,321.6c4.1-0.4,7.2-4,6.9-8.1c-0.4-4.1-4-7.2-8.1-6.9c-17,1.4-30.2,15.9-30.2,33
		c0,18.2,14.8,33.1,33.1,33.1s33.1-14.8,33.1-33.1c0.6-5.4-2.4-11.7-8.7-10.8c-5.4,0.7-7.2,6.1-6.3,10.8c0,9.9-8.1,18-18,18
		s-18-8.1-18-18C349.8,330.3,357.1,322.4,366.3,321.6L366.3,321.6z"/>
	<path class="st0" d="M174,183.3c-0.4,1-8.7,25.7,3.2,42.6c11.8,16.9,38.1,18,39.2,18.1c0.1,0,0.2,0,0.3,0c3.2,0,6.1-2,7.1-5.1
		c0.4-1,8.7-25.7-3.2-42.6c-11.8-16.9-38.1-18-39.2-18.1C178.1,178.1,175.1,180.2,174,183.3L174,183.3z M186.8,194
		c7,1.3,16.9,4.4,21.5,11c4.6,6.5,4.1,16.5,2.8,23.3c-7-1.3-16.9-4.4-21.5-11C185,210.8,185.5,200.8,186.8,194z"/>
	<path class="st0" d="M291.2,309.2c-19.1-7.6-41.7,5.8-42.7,6.3c-2.8,1.7-4.2,5.1-3.4,8.3c0.3,1.1,6.8,26.2,26,33.9
		c4.2,1.7,8.6,2.4,12.9,2.4c15.1,0,29-8.2,29.8-8.7c2.8-1.7,4.2-5.1,3.4-8.3C316.9,342,310.4,316.8,291.2,309.2L291.2,309.2z
		 M276.7,343.7c-7.4-3-12.4-11.6-15.1-18c6.6-2.8,16.5-5.6,24-2.6c7.4,3,12.4,11.6,15.1,18C294.1,343.9,284.2,346.7,276.7,343.7z"/>
	<path class="st0" d="M213.6,300.8c2.4-2.3,3-5.9,1.6-8.8c-0.5-1-12.3-24.2-32.7-27.6c-20.3-3.4-39.5,14.6-40.4,15.3
		c-2.4,2.3-3,5.9-1.6,8.8c0.5,1,12.3,24.2,32.7,27.6c1.7,0.3,3.5,0.4,5.2,0.4C196.8,316.6,212.9,301.5,213.6,300.8L213.6,300.8z
		 M157.1,287c5.8-4.1,14.9-9,22.9-7.7c7.9,1.3,14.6,8.7,18.6,14.4c-5.8,4.1-14.9,9-22.9,7.7C167.9,300,161.1,292.7,157.1,287z"/>
	<path class="st0" d="M352.3,160c1.1,0,2.3-0.3,3.4-0.8c1-0.5,24.2-12.3,27.5-32.7c3.3-20.3-14.6-39.5-15.4-40.3
		c-2.3-2.4-5.9-3-8.8-1.6c-1,0.5-24.2,12.3-27.5,32.7c-3.3,20.3,14.6,39.5,15.4,40.3C348.3,159.2,350.3,160,352.3,160L352.3,160z
		 M346.3,119.8c1.3-7.9,8.7-14.6,14.3-18.6c4.1,5.8,9,14.9,7.7,22.9c-1.3,7.9-8.6,14.6-14.3,18.6
		C350.2,137.3,344.9,128.2,346.3,119.8L346.3,119.8z"/>
	<path class="st0" d="M81.2,301c0,12.4,10.1,22.6,22.6,22.6s22.6-10.1,22.6-22.6s-10.1-22.6-22.6-22.6S81.2,288.6,81.2,301z
		 M103.7,293.5c4.1,0,7.5,3.4,7.5,7.5c0,4.1-3.4,7.5-7.5,7.5c-4.1,0-7.5-3.4-7.5-7.5C96.2,296.9,99.6,293.5,103.7,293.5z"/>
	<path class="st0" d="M143.8,182.2c12.4,0,22.6-10.1,22.6-22.6s-10.1-22.6-22.6-22.6s-22.6,10.1-22.6,22.6S131.4,182.2,143.8,182.2z
		 M143.8,152.2c4.1,0,7.5,3.4,7.5,7.5s-3.4,7.5-7.5,7.5s-7.5-3.4-7.5-7.5S139.7,152.2,143.8,152.2z"/>
	<path class="st0" d="M432,153.7c0-12.4-10.1-22.6-22.6-22.6s-22.6,10.1-22.6,22.6s10.1,22.6,22.6,22.6S432,166.1,432,153.7z
		 M401.9,153.7c0-4.1,3.4-7.5,7.5-7.5c4.1,0,7.5,3.4,7.5,7.5s-3.4,7.5-7.5,7.5C405.3,161.2,401.9,157.8,401.9,153.7z"/>
	<path class="st0" d="M317.2,374.7c-12.4,0-22.6,10.1-22.6,22.6s10.1,22.6,22.6,22.6s22.6-10.1,22.6-22.6S329.7,374.7,317.2,374.7z
		 M317.2,404.8c-4.1,0-7.5-3.4-7.5-7.5c0-4.1,3.4-7.5,7.5-7.5c4.1,0,7.5,3.4,7.5,7.5C324.8,401.4,321.4,404.8,317.2,404.8z"/>
	<path class="st0" d="M210,370.7c12.4,0,22.6-10.1,22.6-22.6s-10.1-22.6-22.6-22.6s-22.6,10.1-22.6,22.6S197.6,370.7,210,370.7z
		 M210,340.6c4.1,0,7.5,3.4,7.5,7.5s-3.4,7.5-7.5,7.5s-7.5-3.4-7.5-7.5S205.8,340.6,210,340.6z"/>
</g>
</svg>
