<?xml version="1.0" encoding="utf-8"?>
<!-- Generator: Adobe Illustrator 24.0.2, SVG Export Plug-In . SVG Version: 6.00 Build 0)  -->
<svg version="1.1" id="Layer_1" xmlns="http://www.w3.org/2000/svg" xmlns:xlink="http://www.w3.org/1999/xlink" x="0px" y="0px"
	 viewBox="0 0 512 512" style="enable-background:new 0 0 512 512;" xml:space="preserve">
<style type="text/css">
	.st0{fill:#262832;}
</style>
<g>
	<g>
		<path class="st0" d="M234.8,156.9c0.3,4.7,5,7.9,9.5,6.7c2.1-0.6,3.9-2.1,4.8-4.1c1.1-2.3,0.6-4.8,0.3-7.2
			c-1.4-12-3.6-32.2,25-41.8c18.1-6,30-19.2,34.4-38c3.2-13.6,1.2-25.5,1.2-26c-0.7-4.1-4.6-6.8-8.6-6.1c-4.1,0.7-6.8,4.5-6.2,8.6
			c0.2,1.5,5.7,36.8-25.5,47.3c-40.1,13.4-36.5,45.6-35.1,57.7C234.6,155.1,234.7,156.1,234.8,156.9L234.8,156.9z"/>
		<path class="st0" d="M305.4,117.1c-26.7,8.9-24.2,31-23.3,38.2c0.3,2.4,0.6,4.6,2.4,6.4c1.6,1.6,3.9,2.4,6.1,2.1
			c2.2-0.3,4.3-1.5,5.5-3.4c1.4-2.1,1.2-4.4,0.9-6.8c-1-9.1-0.8-17.6,13.2-22.3c23-7.7,25.5-31,23.5-42.2c-0.7-4.1-4.5-6.8-8.6-6.1
			c-4.1,0.7-6.8,4.5-6.2,8.6C319.2,93.7,321.6,111.6,305.4,117.1L305.4,117.1z"/>
		<path class="st0" d="M178.5,156.9c0.3,4.4,4.6,7.7,9,6.8c2-0.4,3.9-1.7,4.9-3.5c1.2-2.1,1.1-4.3,0.8-6.6
			c-1-9.1-0.8-17.6,13.2-22.3c23-7.7,25.5-31,23.5-42.2c-0.7-4.1-4.6-6.8-8.7-6.1c-4.1,0.7-6.8,4.6-6.1,8.7
			c0.1,0.8,3.2,19.8-13.5,25.4c-26.7,8.9-24.2,31-23.3,38.2C178.4,155.9,178.5,156.5,178.5,156.9L178.5,156.9z"/>
		<path class="st0" d="M498,364.8h-10.9c0.2-1.4,0.3-2.9,0.3-4.3c0-12.4-7.1-23.5-17.8-28.9c0-7.5-2.6-14.4-6.9-19.9
			c14.9-10.7,25.8-26.2,31.1-44.8c2.9-9.9,0.1-15-9.6-18.3c-21.4-7.1-43.6-5.6-62.9,4.1c-0.1-0.6-0.1-1.2-0.2-1.9
			c-2.8-23.9-15.2-45.4-35.1-60.5c-8.7-6.6-14.5-5.9-21.5,2.5c-10.9,13.2-17.8,28.6-20.1,44.7c-5.7-4.9-13.1-7.8-21-7.8
			c-4.1,0-8.1,0.8-11.8,2.2c-6-6-14.2-9.4-22.9-9.4c-3.3,0-6.6,0.5-9.8,1.5c-9.7-8.3-25.3-11.5-46.6-9.2c-3.9,0.4-7.9,0.9-12,1.5
			c-0.3-0.1-0.6-0.3-0.9-0.4c-13.2-4.6-31.2-5.3-47-1.9c-19.8,4.4-34.9,14.8-42.4,29.5c-0.3,0.6-0.6,1.2-0.9,1.8
			c-14.9,9.2-24.7,19.8-29.1,31.7c-6.2,0.6-12.1,2.9-16.9,6.7c-5.5,3.9-9.7,9.3-11.9,15.5c-16.3,1.7-29,15.4-29,32.1v0
			c-10.7,5.4-17.8,16.5-17.8,28.9c0,1.5,0.1,2.9,0.3,4.3H14c-7.7,0-14,6.3-14,14v21.1C0,419.2,15.7,435,35.1,435h4.5v10.9
			c0,14.3,11.6,25.9,25.9,25.9h381.1c14.3,0,25.9-11.6,25.9-25.9V435h4.5c19.3,0,35.1-15.7,35.1-35.1v-21.1
			C512,371.1,505.7,364.8,498,364.8L498,364.8z M421.3,270.2c1.8-1.2,3.7-2.4,5.7-3.4c15.9-8.4,34.6-9.8,52.5-3.9
			c-4.8,16.7-15.1,30.5-29.1,39.1c-3-1.3-6.3-2.2-9.7-2.6c-2.2-6.2-6.4-11.7-11.9-15.5c-2.7-2.1-5.7-3.8-8.9-4.9
			C420.5,276.1,420.9,273.2,421.3,270.2L421.3,270.2z M376.1,202.5c0.1-0.2,0.3-0.3,0.4-0.5c0.1,0.1,0.3,0.2,0.4,0.3
			c16.6,12.7,27,30.5,29.3,50.3c0.9,7.7,0.5,15.3-1,22.8c-4.8-7-12.1-11.9-20.5-13.5c-5.5-9.2-15.2-15.2-26-15.7
			C359.5,230.6,365.6,215.3,376.1,202.5z M142.8,251.8c0.2-0.4,0.4-0.9,0.7-1.3c12.9-25.1,52.7-26.6,70.8-20.4
			c8.9,3.9,13,10.3,12.2,14.3c-0.7,3.8-6.6,8.4-21,8.9c-16.1,0.5-23.8,7.6-29.4,12.8c-1.8,1.7-3.4,3.1-4.9,4
			c-7,4.4-13.9,2.8-17.4,1.4c-5.4-2.1-9.8-6.2-10.9-10.2C141.1,255.2,141.3,254.9,142.8,251.8L142.8,251.8z M52.3,343.8
			c3.8-1,6.2-4.9,5.4-8.8c-0.2-1.1-0.3-2.2-0.3-3.4c0-9.5,7.8-17.3,17.3-17.3c0.5,0,1.1,0,1.8,0.1c4,0.4,7.6-2.4,8.2-6.4
			c0.7-4.8,3.4-9.1,7.4-11.8c0.1-0.1,0.3-0.2,0.4-0.3c1.4-1.1,2.8-1.9,4.4-2.6c-0.5,8.5,1.5,15.7,5.9,21.1
			c5.2,6.4,13.4,9.5,22.9,8.6c1.9-0.2,3.9-0.5,5.9-0.8c10.9-1.6,22.1-3.3,32.7,8.4c8.9,9.8,23.5,15.7,40,16.4
			c15.8,0.6,31.1-3.5,42.1-11.2c3.4-2.4,4.2-7.1,1.8-10.5c-2.4-3.4-7.1-4.2-10.5-1.8c-16,11.3-48.6,12.1-62.3-3
			c-16-17.6-34.1-15-46-13.2c-1.9,0.3-3.6,0.5-5.1,0.7c-4.5,0.4-7.9-0.6-9.9-3.1c-3.3-4-3.5-11.7-0.6-21c2.1-6.8,6.9-13.3,14.4-19.3
			c0.1,0.3,0.2,0.6,0.3,1c2.5,8.6,10.1,16.3,20,20c10.3,4,21.5,3,30.7-2.7c2.7-1.7,5-3.8,7.1-5.7c5-4.6,9.2-8.5,19.8-8.9
			c29.2-1,34.3-16.4,35.2-21.1c1.1-6-0.4-12.2-4.2-17.6c17.6-1.4,30,1.8,34.9,9c4.8,7.1,3.3,19.4-4.2,33.8
			c-3.9,7.5-11.6,23.5-12.4,25.3c-1.8,3.7-0.3,8.2,3.5,10c3.7,1.8,8.2,0.3,10-3.5c0.9-1.8,8.5-17.6,12.3-25
			c8.3-15.9,10.6-30.4,7-41.6c0.3,0,0.5,0,0.8,0c5.9,0,11.4,3,14.6,8c1.1,1.7,2.8,2.9,4.8,3.3c2,0.4,4,0,5.7-1.1
			c2.8-1.9,6.1-2.9,9.6-2.9c7.8,0,14.6,5.2,16.7,12.7c0.6,2.1,2,3.8,3.9,4.7s4.2,1,6.2,0.2c2.1-0.9,4.4-1.3,6.7-1.3
			c7,0,13.3,4.2,16,10.6c1.1,2.7,3.7,4.5,6.5,4.6c7,0.3,13.1,4.9,15.5,11.6c1.3,3.7,5.3,5.8,9.1,4.7c1.6-0.4,3.2-0.7,4.9-0.7
			c4,0,7.7,1.3,10.7,3.7c0.1,0.1,0.3,0.2,0.4,0.3c4,2.8,6.7,7.1,7.4,11.9c0.6,4,4.2,6.8,8.2,6.4c0.7-0.1,1.2-0.1,1.8-0.1
			c9.5,0,17.3,7.8,17.3,17.3c0,1.2-0.1,2.3-0.3,3.5c-0.8,3.9,1.6,7.7,5.4,8.7c7.5,2,12.8,8.9,12.8,16.7c0,1.5-0.2,2.9-0.5,4.3H40
			c-0.4-1.4-0.6-2.9-0.6-4.3C39.5,352.7,44.8,345.8,52.3,343.8L52.3,343.8z M497,399.9c0,11.1-9,20.1-20.1,20.1H275.1
			c-4.1,0-7.5,3.4-7.5,7.5s3.4,7.5,7.5,7.5h182.3v10.9c0,6-4.9,10.9-10.9,10.9H65.5c-6,0-10.9-4.9-10.9-10.9V435h185.7
			c4.1,0,7.5-3.4,7.5-7.5s-3.4-7.5-7.5-7.5H35.1C24,420,15,411,15,399.9v-20.1h482L497,399.9z"/>
		<path class="st0" d="M310.1,289.6c2.3-2.3,5.3-3.5,8.5-3.5c3.2,0,6.2,1.2,8.5,3.5c1.5,1.5,3.4,2.2,5.3,2.2s3.8-0.7,5.3-2.2
			c2.9-2.9,2.9-7.7,0-10.6c-5.1-5.1-11.9-7.9-19.1-7.9s-14,2.8-19.1,7.9c-2.9,2.9-2.9,7.7,0,10.6
			C302.4,292.5,307.1,292.5,310.1,289.6L310.1,289.6z"/>
		<path class="st0" d="M394,344c1.9,0,3.8-0.7,5.3-2.2c2.3-2.3,5.3-3.5,8.5-3.5s6.2,1.2,8.5,3.5c2.9,2.9,7.7,2.9,10.6,0
			c2.9-2.9,2.9-7.7,0-10.6c-5.1-5.1-11.9-7.9-19.1-7.9s-14,2.8-19.1,7.9c-2.9,2.9-2.9,7.7,0,10.6C390.2,343.3,392.1,344,394,344
			L394,344z"/>
		<path class="st0" d="M280,335.9c1.5,1.5,3.4,2.2,5.3,2.2c1.9,0,3.8-0.7,5.3-2.2c2.9-2.9,2.9-7.7,0-10.6c-2.9-2.9-7.7-2.9-10.6,0
			C277.1,328.2,277.1,333,280,335.9L280,335.9z"/>
		<path class="st0" d="M83.6,343.7c1.5,1.5,3.4,2.2,5.3,2.2c1.9,0,3.8-0.7,5.3-2.2c2.9-2.9,2.9-7.7,0-10.6c-2.9-2.9-7.7-2.9-10.6,0
			C80.7,336,80.7,340.7,83.6,343.7L83.6,343.7z"/>
		<path class="st0" d="M363.3,314.9c4.1,0,7.5-3.4,7.5-7.5s-3.4-7.5-7.5-7.5s-7.5,3.4-7.5,7.5v0
			C355.8,311.5,359.1,314.9,363.3,314.9z"/>
		<path class="st0" d="M327.9,330.6c-2.9,3-2.9,7.7,0.1,10.6l0,0c1.5,1.4,3.3,2.1,5.2,2.1c1.9,0,3.9-0.8,5.4-2.3
			c2.9-3,2.8-7.7-0.1-10.6C335.6,327.6,330.8,327.7,327.9,330.6z"/>
	</g>
</g>
</svg>
